<?xml version="1.0" encoding="UTF-8" standalone="no"?>
<svg
   version="1.1"
   viewBox="0 0 342.36609 191.8765"
   fill="none"
   stroke="none"
   stroke-linecap="square"
   stroke-miterlimit="10"
   id="svg117"
   sodipodi:docname="brand.svg"
   width="342.36609"
   height="191.8765"
   inkscape:version="1.1.2 (0a00cf5339, 2022-02-04)"
   xmlns:inkscape="http://www.inkscape.org/namespaces/inkscape"
   xmlns:sodipodi="http://sodipodi.sourceforge.net/DTD/sodipodi-0.dtd"
   xmlns="http://www.w3.org/2000/svg"
   xmlns:svg="http://www.w3.org/2000/svg">
  <defs
     id="defs121" />
  <sodipodi:namedview
     id="namedview119"
     pagecolor="#ffffff"
     bordercolor="#666666"
     borderopacity="1.0"
     inkscape:pageshadow="2"
     inkscape:pageopacity="0.0"
     inkscape:pagecheckerboard="0"
     showgrid="false"
     fit-margin-top="0"
     fit-margin-left="0"
     fit-margin-right="0"
     fit-margin-bottom="0"
     inkscape:zoom="0.68111408"
     inkscape:cx="-145.3501"
     inkscape:cy="149.75465"
     inkscape:window-width="1920"
     inkscape:window-height="1011"
     inkscape:window-x="0"
     inkscape:window-y="32"
     inkscape:window-maximized="1"
     inkscape:current-layer="svg117" />
  <clipPath
     id="p.0">
    <path
       d="M 0,0 H 1024 V 768 H 0 Z"
       clip-rule="nonzero"
       id="path82" />
  </clipPath>
  <g
     clip-path="url(#p.0)"
     id="g115"
     style="display:inline"
     transform="translate(-317.09513,-163.35015)">
    <path
       fill="#000000"
       fill-opacity="0"
       d="M 0,0 H 1024 V 768 H 0 Z"
       fill-rule="evenodd"
       id="path85" />
    <path
       fill="#ff0000"
       d="m 508.52325,243.24026 v 0 c 8.77252,37.40109 -7.6955,73.57657 -40.73254,89.47763 -33.03708,15.90106 -75.06348,7.87952 -103.94949,-19.84076 -28.88602,-27.72024 -38.00434,-68.77939 -22.55353,-101.55699 15.45077,-32.7776 51.92581,-49.75351 90.2185,-41.98877 l -4.35086,40.2972 c -20.85879,-5.98423 -40.6336,1.70361 -48.60473,18.89601 -7.97116,17.19239 -2.24069,39.79585 14.08493,55.55732 16.32565,15.76148 39.35931,20.92816 56.6148,12.69925 17.25547,-8.22891 24.62421,-27.89407 18.1117,-48.33529 z"
       fill-rule="evenodd"
       id="path87" />
    <path
       stroke="#000000"
       stroke-width="1"
       stroke-linejoin="round"
       stroke-linecap="butt"
       d="m 508.52325,243.24026 v 0 c 8.77252,37.40109 -7.6955,73.57657 -40.73254,89.47763 -33.03708,15.90106 -75.06348,7.87952 -103.94949,-19.84076 -28.88602,-27.72024 -38.00434,-68.77939 -22.55353,-101.55699 15.45077,-32.7776 51.92581,-49.75351 90.2185,-41.98877 l -4.35086,40.2972 c -20.85879,-5.98423 -40.6336,1.70361 -48.60473,18.89601 -7.97116,17.19239 -2.24069,39.79585 14.08493,55.55732 16.32565,15.76148 39.35931,20.92816 56.6148,12.69925 17.25547,-8.22891 24.62421,-27.89407 18.1117,-48.33529 z"
       fill-rule="evenodd"
       id="path89" />
    <path
       fill="#00ff00"
       d="m 450.17938,266.4472 v 0 c -3.65796,-38.86406 20.33252,-76.12614 58.96106,-91.57842 38.62854,-15.45225 82.69257,-5.41349 108.29547,24.67212 25.60297,30.08562 26.64532,73.05074 2.56189,105.59472 -24.08344,32.54394 -67.55536,46.91375 -106.84009,35.31643 l 13.16309,-36.49957 c 22.05365,5.98187 46.49035,-2.55615 60.16723,-21.02203 13.67688,-18.46589 13.37012,-42.50705 -0.75519,-59.19338 -14.12536,-16.68634 -38.7398,-22.08469 -60.60498,-13.29167 -21.8652,8.79303 -35.82721,29.70482 -34.37686,51.48837 z"
       fill-rule="evenodd"
       id="path91" />
    <path
       stroke="#000000"
       stroke-width="1"
       stroke-linejoin="round"
       stroke-linecap="butt"
       d="m 450.17938,266.4472 v 0 c -3.65796,-38.86406 20.33252,-76.12614 58.96106,-91.57842 38.62854,-15.45225 82.69257,-5.41349 108.29547,24.67212 25.60297,30.08562 26.64532,73.05074 2.56189,105.59472 -24.08344,32.54394 -67.55536,46.91375 -106.84009,35.31643 l 13.16309,-36.49957 c 22.05365,5.98187 46.49035,-2.55615 60.16723,-21.02203 13.67688,-18.46589 13.37012,-42.50705 -0.75519,-59.19338 -14.12536,-16.68634 -38.7398,-22.08469 -60.60498,-13.29167 -21.8652,8.79303 -35.82721,29.70482 -34.37686,51.48837 z"
       fill-rule="evenodd"
       id="path93" />
    <path
       fill="#ff0000"
       d="m 491.77472,257.6598 v 0 c 8.77252,37.40106 -7.6955,73.57657 -40.73257,89.47763 -33.03705,15.90106 -75.06345,7.87949 -103.94946,-19.84076 -28.88602,-27.72028 -38.00434,-68.77942 -22.55353,-101.55701 15.45077,-32.7776 51.92581,-49.75351 90.2185,-41.98877 l -4.35086,40.2972 c -20.85882,-5.98423 -40.6336,1.70359 -48.60473,18.89601 -7.97116,17.19238 -2.24073,39.79583 14.08493,55.55731 16.32565,15.76147 39.35931,20.92816 56.6148,12.69925 17.25547,-8.22888 24.62421,-27.89405 18.1117,-48.3353 z"
       fill-rule="evenodd"
       id="path95" />
    <path
       stroke="#000000"
       stroke-width="1"
       stroke-linejoin="round"
       stroke-linecap="butt"
       d="m 491.77472,257.6598 v 0 c 8.77252,37.40106 -7.6955,73.57657 -40.73257,89.47763 -33.03705,15.90106 -75.06345,7.87949 -103.94946,-19.84076 -28.88602,-27.72028 -38.00434,-68.77942 -22.55353,-101.55701 15.45077,-32.7776 51.92581,-49.75351 90.2185,-41.98877 l -4.35086,40.2972 c -20.85882,-5.98423 -40.6336,1.70359 -48.60473,18.89601 -7.97116,17.19238 -2.24073,39.79583 14.08493,55.55731 16.32565,15.76147 39.35931,20.92816 56.6148,12.69925 17.25547,-8.22888 24.62421,-27.89405 18.1117,-48.3353 z"
       fill-rule="evenodd"
       id="path97" />
    <path
       fill="#00ff00"
       d="m 471.7714,262.61383 v 0 c -3.65796,-38.86408 20.33252,-76.12617 58.96103,-91.57843 38.62854,-15.45227 82.69263,-5.4135 108.29553,24.6721 25.6029,30.08562 26.64526,73.05077 2.56183,105.59471 -24.08344,32.54398 -67.5553,46.91379 -106.84009,35.31647 l 13.16308,-36.4996 c 22.05365,5.98187 46.49036,-2.55612 60.16724,-21.02204 13.67688,-18.46588 13.37018,-42.50703 -0.75519,-59.19337 -14.1253,-16.68633 -38.7398,-22.08469 -60.60498,-13.29166 -21.86517,8.79302 -35.82718,29.70481 -34.37683,51.48836 z"
       fill-rule="evenodd"
       id="path99" />
    <path
       stroke="#000000"
       stroke-width="1"
       stroke-linejoin="round"
       stroke-linecap="butt"
       d="m 471.7714,262.61383 v 0 c -3.65796,-38.86408 20.33252,-76.12617 58.96103,-91.57843 38.62854,-15.45227 82.69263,-5.4135 108.29553,24.6721 25.6029,30.08562 26.64526,73.05077 2.56183,105.59471 -24.08344,32.54398 -67.5553,46.91379 -106.84009,35.31647 l 13.16308,-36.4996 c 22.05365,5.98187 46.49036,-2.55612 60.16724,-21.02204 13.67688,-18.46588 13.37018,-42.50703 -0.75519,-59.19337 -14.1253,-16.68633 -38.7398,-22.08469 -60.60498,-13.29166 -21.86517,8.79302 -35.82718,29.70481 -34.37683,51.48836 z"
       fill-rule="evenodd"
       id="path101" />
    <path
       fill="#000000"
       fill-opacity="0"
       d="m 430.30188,171.61908 -15.90549,9.16536"
       fill-rule="evenodd"
       id="path103" />
    <path
       stroke="#000000"
       stroke-width="1"
       stroke-linejoin="round"
       stroke-linecap="butt"
       d="m 430.30188,171.61908 -15.90549,9.16536"
       fill-rule="evenodd"
       id="path105" />
    <path
       fill="#000000"
       fill-opacity="0"
       d="m 519.73926,322.20227 v 0"
       fill-rule="evenodd"
       id="path107" />
    <path
       stroke="#000000"
       stroke-width="1"
       stroke-linejoin="round"
       stroke-linecap="butt"
       d="m 519.73926,322.20227 v 0"
       fill-rule="evenodd"
       id="path109" />
    <path
       fill="#000000"
       fill-opacity="0"
       d="m 512.0084,342.49487 21.70075,-4.189"
       fill-rule="evenodd"
       id="path111" />
    <path
       stroke="#000000"
       stroke-width="1"
       stroke-linejoin="round"
       stroke-linecap="butt"
       d="m 512.0084,342.49487 21.70075,-4.189"
       fill-rule="evenodd"
       id="path113" />
  </g>
</svg>
